# Blender v2.93.4 OBJ File: 'Wrestler3DSegment2.blend'
# www.blender.org
mtllib WrestlerForeArm.mtl
o forearm_Cube.010
v -0.703227 0.554038 -1.087137
v -0.526905 0.731022 -1.087137
v -0.528720 -0.772328 -1.087137
v -0.703227 -0.587667 -1.087137
v 0.656224 0.731022 -1.087137
v 0.832546 0.554038 -1.087137
v 0.832546 -0.587667 -1.087137
v 0.658039 -0.772328 -1.087137
v -0.527333 0.501261 -2.087138
v -0.351130 0.677940 -2.087138
v -0.352955 -0.586198 -2.087138
v -0.527333 -0.401674 -2.087138
v 0.656651 -0.401674 -2.087138
v 0.482274 -0.586198 -2.087138
v 0.480449 0.677940 -2.087138
v 0.656651 0.501261 -2.087138
v -0.048145 0.458755 2.107511
v -0.226375 0.279836 2.107511
v -0.252392 0.648417 1.688553
v -0.429504 0.470465 1.688576
v -0.226375 -0.081241 2.107511
v -0.050148 -0.267726 2.107511
v -0.429496 -0.297215 1.688672
v -0.254239 -0.482666 1.688695
v 0.355694 0.279836 2.107511
v 0.177464 0.458755 2.107511
v 0.558823 0.470465 1.688576
v 0.381710 0.648417 1.688553
v 0.179467 -0.267726 2.107511
v 0.355694 -0.081241 2.107511
v 0.383558 -0.482666 1.688695
v 0.558815 -0.297215 1.688672
vt 0.402211 0.039332
vt 0.625000 0.029432
vt 0.625000 0.219292
vt 0.402204 0.209010
vt 0.625000 0.536492
vt 0.661820 0.500000
vt 0.838180 0.500000
vt 0.875000 0.536492
vt 0.875000 0.715060
vt 0.837794 0.750000
vt 0.662205 0.750000
vt 0.625000 0.715060
vt 0.625000 0.720568
vt 0.625000 0.530708
vt 0.625000 0.971298
vt 0.625000 0.778702
vt 0.625000 0.787205
vt 0.625000 0.962794
vt 0.402204 0.540990
vt 0.402211 0.710668
vt 0.171040 0.584296
vt 0.218852 0.541352
vt 0.281148 0.541352
vt 0.328960 0.584296
vt 0.328960 0.667446
vt 0.280605 0.708648
vt 0.219395 0.708648
vt 0.171040 0.667446
vt 0.402212 0.794801
vt 0.402212 0.955199
vt 0.625000 0.471593
vt 0.625000 0.278407
vt 0.625000 0.286820
vt 0.625000 0.463180
vt 0.402203 0.294332
vt 0.402203 0.455668
vt 0.330199 0.750000
vt 0.169801 0.750000
vt 0.169332 0.500000
vt 0.330668 0.500000
vt 0.125000 0.710668
vt 0.125000 0.540990
vt 0.625000 0.000000
vt 0.625000 0.000000
vt 0.625000 0.034940
vt 0.625000 0.213508
vt 0.328960 0.708648
vt 0.361305 0.737699
vt 0.402212 0.000000
vt 0.619497 0.000000
vn -0.9952 0.0000 0.0981
vn 0.0000 0.0000 -1.0000
vn 0.9849 0.0000 -0.1732
vn 0.0000 0.9986 -0.0530
vn 0.9952 0.0000 0.0981
vn 0.0000 0.0000 1.0000
vn 0.0000 0.9996 0.0297
vn 0.0000 -0.9831 -0.1830
vn 0.0000 -0.9946 0.1038
vn 0.0000 0.9110 0.4124
vn 0.8998 0.0000 0.4363
vn 0.0000 -0.8897 0.4566
vn -0.8998 0.0000 0.4363
vn 0.7042 -0.6654 -0.2476
vn 0.6991 0.6969 -0.1598
vn -0.6991 0.6969 -0.1598
vn -0.7042 -0.6654 -0.2476
vn -0.5936 -0.5609 0.5771
vn -0.5901 0.5876 0.5536
vn 0.5901 0.5876 0.5536
vn -0.7057 0.7027 0.0907
vn -0.7194 -0.6799 0.1421
vn 0.7057 0.7027 0.0907
vn 0.7194 -0.6799 0.1421
vn -0.9849 0.0000 -0.1732
usemtl None
s off
f 20/1/1 1/2/1 4/3/1 23/4/1
f 13/5/2 14/6/2 11/7/2 12/8/2 9/9/2 10/10/2 15/11/2 16/12/2
f 6/13/3 7/14/3 13/5/3 16/12/3
f 2/15/4 5/16/4 15/17/4 10/18/4
f 32/19/5 7/14/5 6/13/5 27/20/5
f 21/21/6 22/22/6 29/23/6 30/24/6 25/25/6 26/26/6 17/27/6 18/28/6
f 28/29/7 5/16/7 2/15/7 19/30/7
f 8/31/8 3/32/8 11/33/8 14/34/8
f 24/35/9 3/32/9 8/31/9 31/36/9
f 17/27/10 26/26/10 28/37/10 19/38/10
f 25/25/11 30/24/11 32/19/11 27/20/11
f 29/23/12 22/22/12 24/39/12 31/40/12
f 21/21/13 18/28/13 20/41/13 23/42/13
f 8/31/14 14/34/14 13/5/14 7/14/14
f 15/17/15 5/16/15 6/13/15 16/12/15
f 2/43/16 10/44/16 9/45/16 1/2/16
f 11/33/17 3/32/17 4/3/17 12/46/17
f 24/39/18 22/22/18 21/21/18 23/42/18
f 17/27/19 19/38/19 20/41/19 18/28/19
f 28/37/20 26/26/20 25/47/20 27/48/20
f 19/49/21 2/50/21 1/2/21 20/1/21
f 3/32/22 24/35/22 23/4/22 4/3/22
f 27/20/23 6/13/23 5/16/23 28/29/23
f 7/14/24 32/19/24 31/36/24 8/31/24
f 4/3/25 1/2/25 9/45/25 12/46/25
